<?xml version="1.0" standalone="no"?>
<!DOCTYPE svg PUBLIC "-//W3C//DTD SVG 20010904//EN"
 "http://www.w3.org/TR/2001/REC-SVG-20010904/DTD/svg10.dtd">
<svg version="1.0" xmlns="http://www.w3.org/2000/svg"
 width="528.000000pt" height="528.000000pt" viewBox="0 0 528.000000 528.000000"
 preserveAspectRatio="xMidYMid meet">
<metadata>
Created by potrace 1.16, written by Peter Selinger 2001-2019
</metadata>
<g transform="translate(0.000000,528.000000) scale(0.100000,-0.100000)"
fill="#000000" stroke="none">
<path d="M2365 5240 c-1105 -115 -2019 -902 -2290 -1972 -59 -230 -69 -321
-69 -628 0 -280 5 -343 39 -515 46 -227 120 -439 229 -656 131 -260 263 -444
465 -652 376 -386 854 -646 1381 -751 185 -37 238 -41 515 -41 246 0 296 3
415 24 399 68 727 193 1031 392 582 383 989 963 1133 1616 43 197 61 365 61
583 0 293 -39 544 -125 800 -179 534 -490 966 -931 1291 -344 255 -703 408
-1139 485 -124 22 -180 27 -390 29 -135 2 -281 0 -325 -5z m-678 -1998 c76
-39 113 -102 113 -191 0 -64 -19 -98 -49 -86 -34 14 -221 18 -282 6 -45 -9
-64 -10 -73 -1 -6 6 -11 43 -11 85 0 65 3 78 30 116 43 61 124 103 187 95 26
-2 64 -14 85 -24z m462 -73 c57 -13 145 -56 171 -84 17 -19 19 -28 11 -69 -5
-26 -11 -50 -14 -53 -4 -3 -48 2 -100 11 -51 10 -140 20 -198 24 l-104 7 -3
56 c-3 62 20 104 61 112 43 8 132 6 176 -4z m1227 -1061 c69 -133 18 -296
-117 -366 -60 -32 -69 -34 -145 -30 -96 5 -148 31 -212 104 -42 47 -68 122
-61 174 4 24 7 25 109 32 117 9 252 39 290 66 14 10 34 36 45 59 l20 41 28
-26 c16 -15 35 -39 43 -54z m254 58 c0 -23 50 -76 87 -91 52 -22 167 -43 276
-51 l97 -7 0 -46 c0 -55 -35 -135 -76 -173 -69 -65 -191 -92 -287 -64 -187 54
-258 260 -141 413 26 35 44 42 44 19z"/>
</g>
</svg>
